# xmcd CD database file
#
# Track frame offsets:
#	182
#	13307
#	27107
#	39557
#	55832
#	68807
#	80507
#	100157
#	121682
#	145982
#	157232
#	171332
#	189857
#	205757
#	217832
#	230657
#	244457
#	291032
#	302132
#	312557
#
# Disc length: 4325 seconds
#
# Revision: 7
# Processed by: cddbd v1.5.2PL0 Copyright (c) Steve Scherf et al.
# Submitted via: CDex 1.51
#
DISCID=2010e314
DTITLE=Simone, Nina - Feeling Good - The Very Best Of
DYEAR=1994
DGENRE=Jazz
TTITLE0=Feeling Good
TTITLE1=My Baby Just Cares For Me
TTITLE2=Don't Let Me Be Misunderstood
TTITLE3=Ne Me Quitte Pas (If You Go Away)
TTITLE4=Take Me To The Water
TTITLE5=I Put A Spell On You
TTITLE6=Don't Explain
TTITLE7=Mississippi Goddam
TTITLE8=Don't Smoke In Bed
TTITLE9=I Loves You Porgy
TTITLE10=Work Song
TTITLE11=Love Me Or Leave Me
TTITLE12=Strange Fruit
TTITLE13=Nobody Knows You When You're Down And Out
TTITLE14=I'm Going Back Home
TTITLE15=The Other Woman
TTITLE16=Sinnerman
TTITLE17=Mood Indigo
TTITLE18=I'm Gonna Leave You
TTITLE19=See - Line Woman
EXTD=YEAR: 1994
EXTT0=
EXTT1=
EXTT2=
EXTT3=
EXTT4=
EXTT5=
EXTT6=
EXTT7=
EXTT8=
EXTT9=
EXTT10=
EXTT11=
EXTT12=
EXTT13=
EXTT14=
EXTT15=
EXTT16=
EXTT17=
EXTT18=
EXTT19=
PLAYORDER=
